<svg xmlns="http://www.w3.org/2000/svg" aria-hidden="true" style="position:absolute;width:0;height:0;overflow:hidden">
  <defs>
    <symbol id="icon-clock" viewBox="0 0 32 32">
      <path d="M31.304 15.305C31.302 6.851 24.447-.001 15.992 0 7.538.002.686 6.857.687 15.312c.002 6.79 4.423 12.546 10.544 14.549l.108.031a.668.668 0 0 0 .53-.065.642.642 0 0 0 .284-.357l3.866-12.253a1.914 1.914 0 1 0-.851-3.63l.011-.005-5.107-5.108a.637.637 0 1 0-.902.902l5.105 5.11a1.875 1.875 0 0 0 .531 2.307l.004.003-3.683 11.676C3.847 25.79.12 17.715 2.801 10.436S13.558-.571 20.837 2.11c7.279 2.682 11.007 10.757 8.326 18.036-1.345 3.582-4.005 6.408-7.376 7.94l-.088.036-.398-1.875a.638.638 0 0 0-1.049-.343l.001-.001-3.838 3.426a.639.639 0 0 0 .227 1.084l.005.001 4.9 1.564a.638.638 0 0 0 .819-.744l.001.004-.391-1.839c5.529-2.375 9.331-7.774 9.331-14.06v-.034.002zm-15.308-.638a.638.638 0 0 1 0 1.276.638.638 0 0 1 0-1.276zm2.101 14.868 2.185-1.948.603 2.841-2.788-.892z" style="fill:var(--color1, #2e2f42)"/>
      <path d="M15.358 3.186v1.275a.638.638 0 0 0 1.276 0V3.186a.639.639 0 0 0-1.276-.001v.001zM3.877 14.667a.638.638 0 0 0 0 1.276h1.275a.638.638 0 0 0 0-1.276H3.877zm24.238 1.276a.638.638 0 0 0 0-1.276H26.84a.639.639 0 0 0-.001 1.276H28.115z" style="fill:var(--color2, #4d5ae5)"/>
    </symbol>
    <symbol id="icon-antenna" viewBox="0 0 32 32">
      <path d="m30.78 22.103-8.445-8.507.937-4.616c.242.094.499.144.759.145h.032a2.16 2.16 0 1 0-2.03-1.421l-.005-.015-4.961.605L8.974.16A.53.53 0 0 0 8.598 0a.54.54 0 0 0-.374.155L6.711 1.659a.53.53 0 0 0 0 .754l.814.825c-1.143 2.063-1.816 4.523-1.816 7.14 0 4.107 1.656 7.827 4.338 10.528l-.001-.001a.5.5 0 0 0 .146.098 2.986 2.986 0 0 0-.052.546v6.19H3.738a2.67 2.67 0 0 0-2.668 2.667v1.067c0 .295.239.534.534.534h24.54a.534.534 0 0 0 .534-.534v-1.067a2.671 2.671 0 0 0-2.668-2.667h-6.402v-2.743a14.784 14.784 0 0 0 10.168-1.503l-.077.039.819.823a.534.534 0 0 0 .377.16.532.532 0 0 0 .373-.155l1.513-1.505a.535.535 0 0 0 0-.754zM23.286 6.235a1.067 1.067 0 1 1 .752 1.824h-.003a1.067 1.067 0 0 1-.747-1.824h-.002zM22.03 9.74l-.599 2.946-1.176-1.182 1.774-1.764zm-.606-.902-1.92 1.909-1.485-1.494 3.406-.415zm2.586 19.969a1.6 1.6 0 0 1 1.6 1.6v.534H2.138v-.534a1.6 1.6 0 0 1 1.6-1.6h20.271zm-7.468-2.134v1.067h-5.335v-1.067h5.335zm-5.335-1.067v-4.055c0-1.294 1.197-2.347 2.667-2.347s2.668 1.053 2.668 2.347v4.055h-5.335zm6.401-1.696v-2.358c0-1.882-1.675-3.414-3.734-3.414h-.059a3.798 3.798 0 0 0-3.214 1.771l-.009.016a13.82 13.82 0 0 1-3.812-9.552c0-2.315.567-4.497 1.569-6.416l-.036.077L26.92 22.747c-1.823.947-3.981 1.502-6.268 1.502-1.079 0-2.129-.124-3.137-.357l.093.018zm11.292-.684L7.838 2.04l.755-.752L16.53 9.27c.003 0 .006.007.009.009l13.118 13.194-.757.752z" style="fill:var(--color1, #2e2f42)"/>
      <path d="M13.879 20.271h-.007a1.6 1.6 0 0 0-.002 3.2h.007a1.6 1.6 0 0 0 .002-3.2zm.373 1.979a.534.534 0 0 1-.91-.379v-.002a.534.534 0 0 1 .53-.531.535.535 0 0 1 .374.912h.005z" style="fill:var(--color2, #4d5ae5)"/>
    </symbol>
    <symbol id="icon-astronaut" viewBox="0 0 32 32">
      <path d="M31.982 4.525a.535.535 0 0 0-.427-.362h-.003l-1.911-.278-.855-1.731c-.179-.365-.777-.365-.956 0l-.855 1.731-1.91.278a.533.533 0 0 0-.296.91l1.383 1.348-.327 1.903c-.034.2.048.402.212.522a.528.528 0 0 0 .562.04l1.709-.899 1.709.899a.534.534 0 0 0 .773-.566v.003l-.326-1.903 1.383-1.348a.535.535 0 0 0 .134-.551l.001.004zm-2.464 1.327a.534.534 0 0 0-.153.472l.191 1.114-1.001-.526a.525.525 0 0 0-.5.001l.003-.001-1.001.526.191-1.114a.533.533 0 0 0-.153-.472l-.81-.79 1.119-.163a.535.535 0 0 0 .402-.292l.5-1.013.501 1.013a.532.532 0 0 0 .402.292l1.119.163-.809.79zM26.14 20.527h-1.067v1.067h1.067v-1.067zm0 2.134h-1.067v1.067h1.067V22.66zM27.207 21.594H26.14v1.067h1.067v-1.067zm-2.134 0h-1.067v1.067h1.067v-1.067zm-2.668 4.801h-1.067v1.067h1.067v-1.067zm0 2.134h-1.067v1.067h1.067v-1.067zm1.068-1.067h-1.067v1.067h1.067v-1.068z" style="fill:var(--color2, #4d5ae5)"/>
      <path d="M21.339 27.462h-1.067v1.067h1.067v-1.068zm-5.335-3.201h-1.067v1.067h1.067V24.26zm0 2.134h-1.067v1.067h1.067v-1.067zm1.067-1.066h-1.067v1.067h1.067v-1.067zm-2.134 0H13.87v1.067h1.067v-1.067zM5.868 6.123H4.801V7.19h1.067V6.123zm0 2.134H4.801v1.067h1.067V8.257zM6.935 7.19H5.868v1.067h1.067V7.19zm-2.134 0H3.734v1.067h1.067V7.19z" style="fill:var(--color2, #4d5ae5)"/>
      <path d="M24.721 14.163a1.774 1.774 0 0 0-1.179-.704l-.009-.001a1.77 1.77 0 0 0-1.344.356l.004-.003-1.252.96-1.898 1.418-1.358-.541c2.422-1.086 4.114-3.509 4.114-6.322 0-3.824-3.123-6.935-6.963-6.935S7.873 5.502 7.873 9.326c0 1.386.414 2.675 1.12 3.759l-2.77-.024c-.008 0-.015.005-.024.005a.495.495 0 0 0-.159.032l.004-.001c-.013.005-.026.008-.038.014-.006.002-.013.003-.019.007l-3.235 1.597-1.894.911a.429.429 0 0 0-.064.036l.001-.001a1.78 1.78 0 0 0-.593 2.304l-.005-.01c.22.429.595.745 1.056.89a1.772 1.772 0 0 0 1.388-.133l-.009.005 1.388-.738 2.265-1.17 1.357-.008-5.443 5.416-.002.002-1.339 1.333c-.303.299-.49.714-.49 1.173v.005a1.664 1.664 0 0 0 1.669 1.664 1.67 1.67 0 0 0 1.18-.485L4.532 24.6l1.741-1.3.901.897-3.103 3.089c-.303.299-.49.714-.49 1.173v.005c0 .445.174.864.49 1.179.325.323.753.485 1.18.485s.855-.162 1.18-.485l3.483-3.467.001-.002 1.01-1-.004-.003c.007-.006.015-.009.022-.015l5.167-5.659 3.472.494a.522.522 0 0 0 .266-.035l-.004.001c.017-.006.033-.015.05-.023.019-.009.039-.015.057-.027l3.214-2.134c.012-.008.018-.02.029-.029.012-.01.029-.014.04-.025l1.272-1.192a1.777 1.777 0 0 0 .209-2.366l.003.005zm-22.59 3.611a.71.71 0 0 1-.558.052.717.717 0 0 1-.215-1.259l.002-.001 1.314-.632.316.925.133.388-.993.528zm3.498-1.828-1.549.8-.255-.747-.184-.537 2.027-1-.04 1.484zm15.103-6.622c0 .919-.219 1.785-.599 2.56L15.95 9.985a1.86 1.86 0 0 0-.782-1.384l-.006-.004 1.464-4.861c2.378.756 4.105 2.974 4.105 5.588zm-11.792 0c0-3.236 2.645-5.868 5.896-5.868.253 0 .5.022.745.053l-1.432 4.755c-.019 0-.037-.005-.057-.005h-.001a1.872 1.872 0 0 0-1.872 1.867 1.872 1.872 0 0 0 1.872 1.867h.001c.695 0 1.295-.383 1.618-.945l3.863 1.755a5.894 5.894 0 0 1-4.738 2.391c-3.251 0-5.896-2.633-5.896-5.868zm5.958.8c0 .441-.362.8-.806.8h-.002a.804.804 0 0 1-.804-.8c0-.441.362-.8.806-.8s.806.359.806.8zM2.465 25.152a.61.61 0 0 1-.855.001.591.591 0 0 1 0-.844l.962-.959.851.848-.959.955zm3.215 3.735a.606.606 0 0 1-.855.001.591.591 0 0 1 0-.844l.963-.959.852.848-.96.955zm3.483-3.47-.002.001-1.765 1.76-.852-.848 1.764-1.756.002-.001c.04-.04.065-.088.09-.135.007-.014.02-.026.026-.04.017-.041.019-.086.025-.129.004-.024.014-.047.014-.073 0-.035-.012-.07-.02-.106-.007-.032-.007-.065-.018-.096a.512.512 0 0 0-.092-.138c-.01-.012-.014-.027-.025-.038h-.001l-.001-.002-1.607-1.6c-.017-.017-.039-.024-.058-.038a.491.491 0 0 0-.084-.056l-.003-.001a.477.477 0 0 0-.09-.032l-.003-.001a.502.502 0 0 0-.101-.02H6.34a.49.49 0 0 0-.077.006h.003a.59.59 0 0 0-.108.021l.004-.001a.502.502 0 0 0-.096.046l.002-.001c-.02.011-.043.015-.061.029l-1.774 1.324-.901-.897 2.4-2.387 4.361 4.29-.927.919zm6.82-7.019c-.015-.002-.03.004-.045.003l-.026-.001a.562.562 0 0 0-.092.008h.003a.447.447 0 0 0-.187.069l.002-.001a.554.554 0 0 0-.083.061c-.013.011-.028.017-.04.029l-4.7 5.147-4.329-4.258 2.834-2.819a.535.535 0 0 0-.378-.911h-.001l-2.219.013.027-1.608 3.105.027a6.93 6.93 0 0 0 4.979 2.101h.003c.438 0 .864-.045 1.28-.123.04.032.08.065.13.085l2.41.96.331 1.643-3.004-.427zm4.042.179-.314-1.558 1.447-1.08.947 1.257-2.081 1.382zm3.755-2.832-.838.785-.931-1.237.832-.637a.73.73 0 0 1 .543-.143.716.716 0 0 1 .395 1.232z" style="fill:var(--color1, #2e2f42)"/>
      <path d="m13.605 18.549-2.144-2.134a.53.53 0 0 0-.752.001L8.566 18.55a.533.533 0 0 0 0 .756l2.143 2.134a.53.53 0 0 0 .752-.001l2.143-2.134a.532.532 0 0 0 0-.756zm-2.519 1.759-1.387-1.381 1.387-1.381 1.388 1.381-1.388 1.381zm6.082-15.236-.258 1.036c.071.018 1.738.452 1.738 2.15h1.067c0-2.018-1.666-2.966-2.547-3.186zm2.548 4.252h-1.067v1.067h1.067V9.324z" style="fill:var(--color1, #2e2f42)"/>
    </symbol>
    <symbol id="icon-diagram" viewBox="0 0 32 32">
      <path d="M14.929 14.969h1.066v4.798h-1.066v-4.798zm4.266 2.132h1.066v2.666h-1.066v-2.666zm-8.531 1.6h1.066v1.066h-1.066v-1.066zm-3.2-.534h1.067v1.599H7.464v-1.599z" style="fill:var(--color2, #4d5ae5)"/>
      <path d="M1.599 28.298h25.593a1.6 1.6 0 0 0 1.599-1.599v-2.133a1.6 1.6 0 0 0-1.599-1.599h-.534V9.67l3.029-2.869a1.608 1.608 0 1 0-.742-.753l-.004-.01-2.282 2.163v-1.23a1.6 1.6 0 0 0-1.599-1.599H3.732a1.6 1.6 0 0 0-1.599 1.599V22.967H1.6a1.6 1.6 0 0 0-1.599 1.599V26.7A1.6 1.6 0 0 0 1.6 28.299zm28.792-23.46a.533.533 0 1 1 0 1.066.533.533 0 1 1 0-1.066zM3.199 6.971c0-.295.239-.534.533-.534h21.327c.295 0 .533.239.533.534V9.21l-1.066 1.013V8.037a.533.533 0 0 0-.533-.533H4.798a.533.533 0 0 0-.533.533v13.329c0 .295.239.534.533.534h19.195a.533.533 0 0 0 .533-.534V11.69l1.066-1.01v12.286H3.199V6.971zm4.799 6.931h-.005a1.6 1.6 0 1 0 1.112 2.748l1.853.93a.533.533 0 0 0 .637-.123l3.939-4.433 3.873 2.902a.532.532 0 0 0 .686-.04l3.366-3.188v8.133H5.332V8.568H23.46v2.661l-3.773 3.573-3.906-2.928a.531.531 0 0 0-.717.072v.001l-3.994 4.494-1.493-.747c.011-.064.018-.129.021-.194a1.6 1.6 0 0 0-1.599-1.599zm.533 1.599a.533.533 0 1 1-1.066 0 .533.533 0 1 1 1.066 0zm3.199 8.531h5.332v.533a.533.533 0 0 1-.533.533h-4.266a.533.533 0 0 1-.533-.533v-.533zm-10.664.534c0-.295.239-.533.533-.533h9.064v.533a1.6 1.6 0 0 0 1.599 1.599h4.266a1.6 1.6 0 0 0 1.599-1.599v-.534h9.063c.295 0 .534.239.534.533v2.133a.534.534 0 0 1-.534.533H1.598a.533.533 0 0 1-.533-.533v-2.133z" style="fill:var(--color1, #2e2f42)"/>
    </symbol>
    <symbol id="icon-twitter" viewBox="0 0 32 32">
      <path d="M32.021 6.083a13.68 13.68 0 0 1-3.782 1.035 6.56 6.56 0 0 0 2.875-3.582l.013-.046a12.877 12.877 0 0 1-4.079 1.575l-.084.014a6.563 6.563 0 0 0-11.355 4.484v.006c0 .52.044 1.019.152 1.496C10.303 10.8 5.474 8.183 2.23 4.199a6.54 6.54 0 0 0-.898 3.318 6.577 6.577 0 0 0 2.915 5.456 6.455 6.455 0 0 1-2.998-.825l.033.017v.072a6.597 6.597 0 0 0 5.216 6.443l.043.008a6.598 6.598 0 0 1-1.721.216l-.104.001c-.403 0-.797-.041-1.177-.119l.038.006c.851 2.599 3.265 4.51 6.135 4.572a13.105 13.105 0 0 1-8.126 2.8h-.013.001c-.539 0-1.055-.024-1.572-.091 2.828 1.847 6.291 2.946 10.011 2.946h.063-.003c12.08 0 18.684-10.007 18.684-18.68 0-.29-.011-.57-.024-.849a13.198 13.198 0 0 0 3.26-3.36l.03-.047z" style="fill:var(--color3, #f4f4fd)"/>
    </symbol>
    <symbol id="icon-vector" viewBox="0 0 32 32">
      <path d="M20.674 5.317h2.923V.226c-.504-.069-2.239-.225-4.259-.225-4.215 0-7.102 2.651-7.102 7.524v4.484H7.585v5.692h4.651v14.321h5.702v-14.32h4.463l.708-5.692h-5.173V8.089c.001-1.645.444-2.771 2.736-2.771z" style="fill:var(--color3, #f4f4fd)"/>
    </symbol>
    <symbol id="icon-linkedin" viewBox="0 0 32 32">
      <path d="M32.013 32.021v-.001h.008V20.276c0-5.745-1.237-10.171-7.952-10.171-3.23 0-5.397 1.772-6.281 3.452h-.093v-2.915h-6.368V32.02h6.631V21.434c0-2.787.528-5.482 3.98-5.482 3.402 0 3.452 3.181 3.452 5.661v10.408h6.624zM.528 10.643h6.639v21.378H.528V10.643zM3.845 0A3.847 3.847 0 0 0 0 3.845c0 2.123 1.722 3.881 3.845 3.881S7.69 5.968 7.69 3.845A3.848 3.848 0 0 0 3.845 0z" style="fill:var(--color3, #f4f4fd)"/>
    </symbol>
    <symbol id="icon-instagram" viewBox="0 0 32 32">
      <path d="M31.99 9.414c-.076-1.701-.351-2.871-.744-3.885a7.869 7.869 0 0 0-1.85-2.838l-.001-.001a7.891 7.891 0 0 0-2.78-1.827l-.054-.018C25.542.451 24.377.174 22.676.1 20.963.02 20.419 0 16.073 0c-4.351 0-4.895.019-6.603.093-1.7.076-2.87.351-3.883.745a7.836 7.836 0 0 0-2.839 1.851l-.001.001A7.891 7.891 0 0 0 .92 5.47l-.018.054C.508 6.543.232 7.707.157 9.407c-.08 1.716-.1 2.26-.1 6.607 0 4.348.019 4.893.093 6.6.076 1.701.351 2.87.746 3.884a7.94 7.94 0 0 0 1.849 2.839l.001.001a7.864 7.864 0 0 0 2.834 1.845c1.019.394 2.183.668 3.885.744 1.708.075 2.251.093 6.599.093 4.347 0 4.891-.019 6.599-.093 1.701-.076 2.871-.351 3.885-.744a8.239 8.239 0 0 0 4.665-4.63l.019-.055c.395-1.019.67-2.183.744-3.884.075-1.708.093-2.252.093-6.6 0-4.347-.005-4.891-.08-6.599zm-2.884 13.074c-.068 1.564-.331 2.408-.55 2.971a5.345 5.345 0 0 1-3.005 3.027l-.036.013c-.563.22-1.414.482-2.971.551-1.689.075-2.195.093-6.468.093-4.272 0-4.784-.019-6.468-.093-1.564-.069-2.408-.331-2.971-.551A4.947 4.947 0 0 1 4.8 27.306l-.001-.001a4.99 4.99 0 0 1-1.184-1.804l-.011-.034c-.219-.563-.48-1.414-.55-2.971-.075-1.689-.093-2.196-.093-6.468 0-4.273.019-4.786.093-6.468.069-1.564.331-2.408.55-2.971a4.897 4.897 0 0 1 1.201-1.84 4.978 4.978 0 0 1 1.807-1.183l.034-.011c.562-.219 1.413-.48 2.97-.551 1.689-.075 2.196-.093 6.468-.093 4.279 0 4.784.019 6.468.093 1.564.069 2.408.332 2.971.551a4.93 4.93 0 0 1 1.839 1.194c.532.52.938 1.145 1.195 1.84.219.563.48 1.414.55 2.971.075 1.689.093 2.195.093 6.468 0 4.272-.019 4.772-.093 6.462z" style="fill:var(--color3, #f4f4fd)"/>
      <path d="M16.069 7.788a8.228 8.228 0 0 0-8.225 8.225 8.228 8.228 0 0 0 8.225 8.225 8.229 8.229 0 0 0 8.227-8.225 8.227 8.227 0 0 0-8.227-8.225zm0 13.561a5.337 5.337 0 0 1 .002-10.674h.001a5.337 5.337 0 0 1-.002 10.674h-.001z" style="fill:var(--color3, #f4f4fd)"/>
    </symbol>
    <symbol id="icon-close-black-18dp-2-1" viewBox="0 0 32 32">
      <path d="M32 3.223l-3.223-3.223-12.777 12.777-12.777-12.777-3.223 3.223 12.777 12.777-12.777 12.777 3.223 3.223 12.777-12.777 12.777 12.777 3.223-3.223-12.777-12.777 12.777-12.777z"></path>
    </symbol>
    <symbol id="icon-name" viewBox="0 0 32 32">
      <path d="M16 16c4.42 0 8-3.58 8-8s-3.58-8-8-8c-4.42 0-8 3.58-8 8s3.58 8 8 8zM16 20c-5.34 0-16 2.68-16 8v2c0 1.1 0.9 2 2 2h28c1.1 0 2-0.9 2-2v-2c0-5.32-10.66-8-16-8z"></path>
    </symbol>
    <symbol id="icon-phone" viewBox="0 0 32 32">
      <path d="M28.865 21.822l-4.525-0.517c-1.087-0.125-2.155 0.249-2.921 1.015l-3.278 3.278c-5.041-2.565-9.174-6.68-11.739-11.739l3.296-3.296c0.766-0.766 1.14-1.835 1.015-2.921l-0.517-4.489c-0.214-1.799-1.728-3.153-3.545-3.153h-3.082c-2.013 0-3.687 1.675-3.563 3.687 0.944 15.213 13.111 27.362 28.306 28.306 2.013 0.125 3.687-1.55 3.687-3.563v-3.082c0.018-1.799-1.336-3.313-3.135-3.527z"></path>
    </symbol>
    <symbol id="icon-email" viewBox="0 0 43 32">
      <path d="M37.333 0h-32c-2.2 0-3.98 1.8-3.98 4l-0.020 24c0 2.2 1.8 4 4 4h32c2.2 0 4-1.8 4-4v-24c0-2.2-1.8-4-4-4zM36.533 8.5l-14.14 8.84c-0.64 0.4-1.48 0.4-2.12 0l-14.14-8.84c-0.5-0.32-0.8-0.86-0.8-1.44 0-1.34 1.46-2.14 2.6-1.44l13.4 8.38 13.4-8.38c1.14-0.7 2.6 0.1 2.6 1.44 0 0.58-0.3 1.12-0.8 1.44z"></path>
    </symbol>
    <symbol id="icon-icon-send" viewBox="0 0 38 32">
      <path d="M38.4 0l-38.4 18 12.272 3.788 18.928-14.788-14.397 16.186 0.012 0.004-0.014-0.004v8.814l6.882-6.691 8.718 2.691 6-28z"></path>
    </symbol>
    <symbol id="icon-icon-tick" viewBox="0 0 40 32">
      <path d="M33.782 1.020c0.691-0.662 1.611-1.027 2.565-1.020s1.869 0.387 2.55 1.059c0.681 0.672 1.076 1.584 1.101 2.543s-0.321 1.891-0.966 2.598l-19.578 24.617c-0.337 0.365-0.743 0.657-1.195 0.86s-0.939 0.312-1.434 0.322c-0.495 0.009-0.986-0.082-1.445-0.268s-0.876-0.463-1.226-0.815l-12.984-13.054c-0.362-0.339-0.652-0.747-0.853-1.201s-0.309-0.944-0.318-1.441 0.082-0.99 0.267-1.451c0.185-0.461 0.461-0.879 0.81-1.231s0.766-0.628 1.224-0.814 0.949-0.277 1.443-0.269c0.494 0.009 0.981 0.118 1.433 0.32s0.858 0.494 1.195 0.857l10.275 10.325 17.042-21.83c0.031-0.038 0.063-0.074 0.098-0.109h-0.005z"></path>
    </symbol>
  </defs>
</svg>
